<mxfile host="Electron" agent="Mozilla/5.0 (Macintosh; Intel Mac OS X 10_15_7) AppleWebKit/537.36 (KHTML, like Gecko) draw.io/27.0.9 Chrome/134.0.6998.205 Electron/35.4.0 Safari/537.36" version="27.0.9">
  <diagram name="Page-1" id="E85I-bnP6wQpwcQG78tk">
    <mxGraphModel dx="788" dy="549" grid="1" gridSize="10" guides="1" tooltips="1" connect="1" arrows="1" fold="1" page="1" pageScale="1" pageWidth="1100" pageHeight="850" math="0" shadow="0">
      <root>
        <mxCell id="0" />
        <mxCell id="1" parent="0" />
        <mxCell id="N1FSnK4nTzxLryd-6ruT-1" value="" style="rounded=0;whiteSpace=wrap;html=1;fillColor=none;dashed=1;dashPattern=8 8;" parent="1" vertex="1">
          <mxGeometry x="90" y="80" width="130" height="470" as="geometry" />
        </mxCell>
        <mxCell id="N1FSnK4nTzxLryd-6ruT-4" value="&lt;b&gt;Sources&lt;/b&gt;" style="text;html=1;align=center;verticalAlign=middle;whiteSpace=wrap;rounded=0;fillColor=default;" parent="1" vertex="1">
          <mxGeometry x="125" y="60" width="60" height="30" as="geometry" />
        </mxCell>
        <mxCell id="N1FSnK4nTzxLryd-6ruT-7" value="Bronze Layer" style="rounded=0;whiteSpace=wrap;html=1;fillColor=#ffe6cc;strokeColor=#d79b00;" parent="1" vertex="1">
          <mxGeometry x="270" y="80" width="150" height="40" as="geometry" />
        </mxCell>
        <mxCell id="N1FSnK4nTzxLryd-6ruT-10" value="" style="rounded=0;whiteSpace=wrap;html=1;fillColor=none;strokeColor=#d79b00;" parent="1" vertex="1">
          <mxGeometry x="270" y="130" width="150" height="420" as="geometry" />
        </mxCell>
        <mxCell id="N1FSnK4nTzxLryd-6ruT-13" value="" style="group" parent="1" vertex="1" connectable="0">
          <mxGeometry x="126" y="200.00000000000003" width="58" height="96.67000000000002" as="geometry" />
        </mxCell>
        <mxCell id="N1FSnK4nTzxLryd-6ruT-14" value="" style="image;aspect=fixed;perimeter=ellipsePerimeter;html=1;align=center;shadow=0;dashed=0;spacingTop=3;image=img/lib/active_directory/folder.svg;" parent="N1FSnK4nTzxLryd-6ruT-13" vertex="1">
          <mxGeometry width="48.666666666666664" height="66.66666666666666" as="geometry" />
        </mxCell>
        <mxCell id="N1FSnK4nTzxLryd-6ruT-15" value="" style="verticalLabelPosition=bottom;html=1;verticalAlign=top;strokeWidth=1;align=center;outlineConnect=0;dashed=0;outlineConnect=0;shape=mxgraph.aws3d.file;aspect=fixed;strokeColor=#292929;" parent="N1FSnK4nTzxLryd-6ruT-13" vertex="1">
          <mxGeometry x="37.19945205479451" y="40" width="17.453333333333333" height="40" as="geometry" />
        </mxCell>
        <mxCell id="N1FSnK4nTzxLryd-6ruT-16" value="CRM" style="text;html=1;align=center;verticalAlign=middle;whiteSpace=wrap;rounded=0;" parent="N1FSnK4nTzxLryd-6ruT-13" vertex="1">
          <mxGeometry x="-2" y="66.67000000000002" width="60" height="30" as="geometry" />
        </mxCell>
        <mxCell id="N1FSnK4nTzxLryd-6ruT-17" value="" style="group" parent="1" vertex="1" connectable="0">
          <mxGeometry x="125" y="400" width="58" height="96.67000000000002" as="geometry" />
        </mxCell>
        <mxCell id="N1FSnK4nTzxLryd-6ruT-18" value="" style="image;aspect=fixed;perimeter=ellipsePerimeter;html=1;align=center;shadow=0;dashed=0;spacingTop=3;image=img/lib/active_directory/folder.svg;" parent="N1FSnK4nTzxLryd-6ruT-17" vertex="1">
          <mxGeometry width="48.666666666666664" height="66.66666666666666" as="geometry" />
        </mxCell>
        <mxCell id="N1FSnK4nTzxLryd-6ruT-19" value="" style="verticalLabelPosition=bottom;html=1;verticalAlign=top;strokeWidth=1;align=center;outlineConnect=0;dashed=0;outlineConnect=0;shape=mxgraph.aws3d.file;aspect=fixed;strokeColor=#292929;" parent="N1FSnK4nTzxLryd-6ruT-17" vertex="1">
          <mxGeometry x="37.19945205479451" y="40" width="17.453333333333333" height="40" as="geometry" />
        </mxCell>
        <mxCell id="N1FSnK4nTzxLryd-6ruT-20" value="ERP" style="text;html=1;align=center;verticalAlign=middle;whiteSpace=wrap;rounded=0;" parent="N1FSnK4nTzxLryd-6ruT-17" vertex="1">
          <mxGeometry x="-2" y="66.67000000000002" width="60" height="30" as="geometry" />
        </mxCell>
        <mxCell id="sbAlcsxLLwHKwiz0pYu1-9" style="edgeStyle=orthogonalEdgeStyle;rounded=0;orthogonalLoop=1;jettySize=auto;html=1;entryX=0;entryY=0.5;entryDx=0;entryDy=0;" parent="1" source="N1FSnK4nTzxLryd-6ruT-37" target="sbAlcsxLLwHKwiz0pYu1-3" edge="1">
          <mxGeometry relative="1" as="geometry" />
        </mxCell>
        <mxCell id="N1FSnK4nTzxLryd-6ruT-37" value="crm_sales_details" style="rounded=0;whiteSpace=wrap;html=1;fillColor=#ffe6cc;strokeColor=#d79b00;" parent="1" vertex="1">
          <mxGeometry x="285" y="170.00000000000003" width="120" height="30" as="geometry" />
        </mxCell>
        <mxCell id="sbAlcsxLLwHKwiz0pYu1-10" style="edgeStyle=orthogonalEdgeStyle;rounded=0;orthogonalLoop=1;jettySize=auto;html=1;entryX=0;entryY=0.5;entryDx=0;entryDy=0;" parent="1" source="N1FSnK4nTzxLryd-6ruT-38" target="sbAlcsxLLwHKwiz0pYu1-4" edge="1">
          <mxGeometry relative="1" as="geometry" />
        </mxCell>
        <mxCell id="N1FSnK4nTzxLryd-6ruT-38" value="crm_cust_info" style="rounded=0;whiteSpace=wrap;html=1;fillColor=#ffe6cc;strokeColor=#d79b00;" parent="1" vertex="1">
          <mxGeometry x="285" y="218.33" width="120" height="30" as="geometry" />
        </mxCell>
        <mxCell id="sbAlcsxLLwHKwiz0pYu1-11" style="edgeStyle=orthogonalEdgeStyle;rounded=0;orthogonalLoop=1;jettySize=auto;html=1;entryX=0;entryY=0.5;entryDx=0;entryDy=0;" parent="1" source="N1FSnK4nTzxLryd-6ruT-39" target="sbAlcsxLLwHKwiz0pYu1-5" edge="1">
          <mxGeometry relative="1" as="geometry" />
        </mxCell>
        <mxCell id="N1FSnK4nTzxLryd-6ruT-39" value="crm_prd_info" style="rounded=0;whiteSpace=wrap;html=1;fillColor=#ffe6cc;strokeColor=#d79b00;" parent="1" vertex="1">
          <mxGeometry x="285" y="266.67" width="120" height="30" as="geometry" />
        </mxCell>
        <mxCell id="N1FSnK4nTzxLryd-6ruT-44" style="edgeStyle=orthogonalEdgeStyle;rounded=0;orthogonalLoop=1;jettySize=auto;html=1;entryX=0;entryY=0.5;entryDx=0;entryDy=0;" parent="1" source="N1FSnK4nTzxLryd-6ruT-14" target="N1FSnK4nTzxLryd-6ruT-37" edge="1">
          <mxGeometry relative="1" as="geometry" />
        </mxCell>
        <mxCell id="N1FSnK4nTzxLryd-6ruT-45" style="edgeStyle=orthogonalEdgeStyle;rounded=0;orthogonalLoop=1;jettySize=auto;html=1;entryX=0;entryY=0.5;entryDx=0;entryDy=0;" parent="1" source="N1FSnK4nTzxLryd-6ruT-14" target="N1FSnK4nTzxLryd-6ruT-38" edge="1">
          <mxGeometry relative="1" as="geometry" />
        </mxCell>
        <mxCell id="N1FSnK4nTzxLryd-6ruT-46" style="edgeStyle=orthogonalEdgeStyle;rounded=0;orthogonalLoop=1;jettySize=auto;html=1;entryX=0;entryY=0.5;entryDx=0;entryDy=0;" parent="1" source="N1FSnK4nTzxLryd-6ruT-14" target="N1FSnK4nTzxLryd-6ruT-39" edge="1">
          <mxGeometry relative="1" as="geometry" />
        </mxCell>
        <mxCell id="sbAlcsxLLwHKwiz0pYu1-15" style="edgeStyle=orthogonalEdgeStyle;rounded=0;orthogonalLoop=1;jettySize=auto;html=1;entryX=0;entryY=0.5;entryDx=0;entryDy=0;" parent="1" source="N1FSnK4nTzxLryd-6ruT-47" target="sbAlcsxLLwHKwiz0pYu1-6" edge="1">
          <mxGeometry relative="1" as="geometry" />
        </mxCell>
        <mxCell id="N1FSnK4nTzxLryd-6ruT-47" value="erp_px_catg1v2" style="rounded=0;whiteSpace=wrap;html=1;fillColor=#ffe6cc;strokeColor=#d79b00;" parent="1" vertex="1">
          <mxGeometry x="285" y="470" width="120" height="30" as="geometry" />
        </mxCell>
        <mxCell id="sbAlcsxLLwHKwiz0pYu1-13" style="edgeStyle=orthogonalEdgeStyle;rounded=0;orthogonalLoop=1;jettySize=auto;html=1;entryX=0;entryY=0.5;entryDx=0;entryDy=0;" parent="1" source="N1FSnK4nTzxLryd-6ruT-48" target="sbAlcsxLLwHKwiz0pYu1-7" edge="1">
          <mxGeometry relative="1" as="geometry" />
        </mxCell>
        <mxCell id="N1FSnK4nTzxLryd-6ruT-48" value="erp_loc_a101" style="rounded=0;whiteSpace=wrap;html=1;fillColor=#ffe6cc;strokeColor=#d79b00;" parent="1" vertex="1">
          <mxGeometry x="285" y="418.33" width="120" height="30" as="geometry" />
        </mxCell>
        <mxCell id="sbAlcsxLLwHKwiz0pYu1-12" style="edgeStyle=orthogonalEdgeStyle;rounded=0;orthogonalLoop=1;jettySize=auto;html=1;entryX=0;entryY=0.5;entryDx=0;entryDy=0;" parent="1" source="N1FSnK4nTzxLryd-6ruT-49" target="sbAlcsxLLwHKwiz0pYu1-8" edge="1">
          <mxGeometry relative="1" as="geometry" />
        </mxCell>
        <mxCell id="N1FSnK4nTzxLryd-6ruT-49" value="erp_cust_az12" style="rounded=0;whiteSpace=wrap;html=1;fillColor=#ffe6cc;strokeColor=#d79b00;" parent="1" vertex="1">
          <mxGeometry x="285" y="370" width="120" height="30" as="geometry" />
        </mxCell>
        <mxCell id="N1FSnK4nTzxLryd-6ruT-50" style="edgeStyle=orthogonalEdgeStyle;rounded=0;orthogonalLoop=1;jettySize=auto;html=1;" parent="1" source="N1FSnK4nTzxLryd-6ruT-18" target="N1FSnK4nTzxLryd-6ruT-49" edge="1">
          <mxGeometry relative="1" as="geometry" />
        </mxCell>
        <mxCell id="N1FSnK4nTzxLryd-6ruT-51" style="edgeStyle=orthogonalEdgeStyle;rounded=0;orthogonalLoop=1;jettySize=auto;html=1;" parent="1" source="N1FSnK4nTzxLryd-6ruT-18" target="N1FSnK4nTzxLryd-6ruT-48" edge="1">
          <mxGeometry relative="1" as="geometry" />
        </mxCell>
        <mxCell id="N1FSnK4nTzxLryd-6ruT-52" style="edgeStyle=orthogonalEdgeStyle;rounded=0;orthogonalLoop=1;jettySize=auto;html=1;entryX=0;entryY=0.5;entryDx=0;entryDy=0;" parent="1" source="N1FSnK4nTzxLryd-6ruT-18" target="N1FSnK4nTzxLryd-6ruT-47" edge="1">
          <mxGeometry relative="1" as="geometry" />
        </mxCell>
        <mxCell id="sbAlcsxLLwHKwiz0pYu1-1" value="Silver Layer" style="rounded=0;whiteSpace=wrap;html=1;fillColor=#f5f5f5;strokeColor=#666666;fontColor=#333333;" parent="1" vertex="1">
          <mxGeometry x="470" y="80" width="150" height="40" as="geometry" />
        </mxCell>
        <mxCell id="sbAlcsxLLwHKwiz0pYu1-2" value="" style="rounded=0;whiteSpace=wrap;html=1;fillColor=none;strokeColor=#666666;fontColor=#333333;" parent="1" vertex="1">
          <mxGeometry x="470" y="130" width="150" height="420" as="geometry" />
        </mxCell>
        <mxCell id="sbAlcsxLLwHKwiz0pYu1-3" value="crm_sales_details" style="rounded=0;whiteSpace=wrap;html=1;fillColor=#f5f5f5;strokeColor=#666666;fontColor=#333333;" parent="1" vertex="1">
          <mxGeometry x="485" y="170.00000000000003" width="120" height="30" as="geometry" />
        </mxCell>
        <mxCell id="sbAlcsxLLwHKwiz0pYu1-4" value="crm_cust_info" style="rounded=0;whiteSpace=wrap;html=1;fillColor=#f5f5f5;strokeColor=#666666;fontColor=#333333;" parent="1" vertex="1">
          <mxGeometry x="485" y="218.33" width="120" height="30" as="geometry" />
        </mxCell>
        <mxCell id="sbAlcsxLLwHKwiz0pYu1-5" value="crm_prd_info" style="rounded=0;whiteSpace=wrap;html=1;fillColor=#f5f5f5;strokeColor=#666666;fontColor=#333333;" parent="1" vertex="1">
          <mxGeometry x="485" y="266.67" width="120" height="30" as="geometry" />
        </mxCell>
        <mxCell id="sbAlcsxLLwHKwiz0pYu1-6" value="erp_px_catg1v2" style="rounded=0;whiteSpace=wrap;html=1;fillColor=#f5f5f5;strokeColor=#666666;fontColor=#333333;" parent="1" vertex="1">
          <mxGeometry x="485" y="470" width="120" height="30" as="geometry" />
        </mxCell>
        <mxCell id="sbAlcsxLLwHKwiz0pYu1-7" value="erp_loc_a101" style="rounded=0;whiteSpace=wrap;html=1;fillColor=#f5f5f5;strokeColor=#666666;fontColor=#333333;" parent="1" vertex="1">
          <mxGeometry x="485" y="418.33" width="120" height="30" as="geometry" />
        </mxCell>
        <mxCell id="sbAlcsxLLwHKwiz0pYu1-8" value="erp_cust_az12" style="rounded=0;whiteSpace=wrap;html=1;fillColor=#f5f5f5;strokeColor=#666666;fontColor=#333333;" parent="1" vertex="1">
          <mxGeometry x="485" y="370" width="120" height="30" as="geometry" />
        </mxCell>
        <mxCell id="Tojbhs_1nHD5c2gFkvEp-1" value="Silver Layer" style="rounded=0;whiteSpace=wrap;html=1;fillColor=#fff2cc;strokeColor=#d6b656;" vertex="1" parent="1">
          <mxGeometry x="670" y="80" width="150" height="40" as="geometry" />
        </mxCell>
        <mxCell id="Tojbhs_1nHD5c2gFkvEp-2" value="" style="rounded=0;whiteSpace=wrap;html=1;fillColor=none;strokeColor=#d6b656;" vertex="1" parent="1">
          <mxGeometry x="670" y="130" width="150" height="420" as="geometry" />
        </mxCell>
        <mxCell id="Tojbhs_1nHD5c2gFkvEp-3" value="fact_sales" style="rounded=0;whiteSpace=wrap;html=1;fillColor=#fff2cc;strokeColor=#d6b656;" vertex="1" parent="1">
          <mxGeometry x="685" y="180" width="120" height="30" as="geometry" />
        </mxCell>
        <mxCell id="Tojbhs_1nHD5c2gFkvEp-4" value="dim_customers" style="rounded=0;whiteSpace=wrap;html=1;fillColor=#fff2cc;strokeColor=#d6b656;" vertex="1" parent="1">
          <mxGeometry x="685" y="321.66" width="120" height="30" as="geometry" />
        </mxCell>
        <mxCell id="Tojbhs_1nHD5c2gFkvEp-5" value="dim_products" style="rounded=0;whiteSpace=wrap;html=1;fillColor=#fff2cc;strokeColor=#d6b656;" vertex="1" parent="1">
          <mxGeometry x="685" y="370.00000000000006" width="120" height="30" as="geometry" />
        </mxCell>
        <mxCell id="Tojbhs_1nHD5c2gFkvEp-16" value="" style="endArrow=classic;html=1;rounded=0;entryX=0;entryY=0.5;entryDx=0;entryDy=0;" edge="1" parent="1" source="sbAlcsxLLwHKwiz0pYu1-3" target="Tojbhs_1nHD5c2gFkvEp-3">
          <mxGeometry width="50" height="50" relative="1" as="geometry">
            <mxPoint x="635" y="240" as="sourcePoint" />
            <mxPoint x="685" y="190" as="targetPoint" />
          </mxGeometry>
        </mxCell>
        <mxCell id="Tojbhs_1nHD5c2gFkvEp-17" value="" style="endArrow=classic;html=1;rounded=0;entryX=0;entryY=0.5;entryDx=0;entryDy=0;exitX=1;exitY=0.5;exitDx=0;exitDy=0;jumpStyle=gap;" edge="1" parent="1" source="sbAlcsxLLwHKwiz0pYu1-4" target="Tojbhs_1nHD5c2gFkvEp-4">
          <mxGeometry width="50" height="50" relative="1" as="geometry">
            <mxPoint x="640" y="240" as="sourcePoint" />
            <mxPoint x="720" y="246" as="targetPoint" />
          </mxGeometry>
        </mxCell>
        <mxCell id="Tojbhs_1nHD5c2gFkvEp-18" value="" style="endArrow=classic;html=1;rounded=0;entryX=0;entryY=0.5;entryDx=0;entryDy=0;exitX=1;exitY=0.5;exitDx=0;exitDy=0;jumpStyle=gap;" edge="1" parent="1" source="sbAlcsxLLwHKwiz0pYu1-8" target="Tojbhs_1nHD5c2gFkvEp-4">
          <mxGeometry width="50" height="50" relative="1" as="geometry">
            <mxPoint x="630" y="270" as="sourcePoint" />
            <mxPoint x="710" y="276" as="targetPoint" />
          </mxGeometry>
        </mxCell>
        <mxCell id="Tojbhs_1nHD5c2gFkvEp-19" value="" style="endArrow=classic;html=1;rounded=0;entryX=0;entryY=0.5;entryDx=0;entryDy=0;exitX=1;exitY=0.5;exitDx=0;exitDy=0;jumpStyle=gap;" edge="1" parent="1" source="sbAlcsxLLwHKwiz0pYu1-7" target="Tojbhs_1nHD5c2gFkvEp-4">
          <mxGeometry width="50" height="50" relative="1" as="geometry">
            <mxPoint x="660" y="340" as="sourcePoint" />
            <mxPoint x="740" y="346" as="targetPoint" />
          </mxGeometry>
        </mxCell>
        <mxCell id="Tojbhs_1nHD5c2gFkvEp-20" value="" style="endArrow=classic;html=1;rounded=0;entryX=0;entryY=0.5;entryDx=0;entryDy=0;exitX=1;exitY=0.5;exitDx=0;exitDy=0;jumpStyle=gap;" edge="1" parent="1" source="sbAlcsxLLwHKwiz0pYu1-5" target="Tojbhs_1nHD5c2gFkvEp-5">
          <mxGeometry width="50" height="50" relative="1" as="geometry">
            <mxPoint x="590" y="340" as="sourcePoint" />
            <mxPoint x="670" y="346" as="targetPoint" />
          </mxGeometry>
        </mxCell>
        <mxCell id="Tojbhs_1nHD5c2gFkvEp-21" value="" style="endArrow=classic;html=1;rounded=0;entryX=0;entryY=0.5;entryDx=0;entryDy=0;exitX=1;exitY=0.5;exitDx=0;exitDy=0;jumpStyle=gap;" edge="1" parent="1" source="sbAlcsxLLwHKwiz0pYu1-6" target="Tojbhs_1nHD5c2gFkvEp-5">
          <mxGeometry width="50" height="50" relative="1" as="geometry">
            <mxPoint x="600" y="420" as="sourcePoint" />
            <mxPoint x="680" y="426" as="targetPoint" />
          </mxGeometry>
        </mxCell>
      </root>
    </mxGraphModel>
  </diagram>
</mxfile>
